<mxfile host="app.diagrams.net" agent="Mozilla/5.0 (Windows NT 10.0; Win64; x64; rv:144.0) Gecko/20100101 Firefox/144.0" version="28.2.7" pages="2">
  <diagram id="Jo3YBjx31V_ToZY0sQDp" name="Client UML">
    <mxGraphModel dx="1281" dy="563" grid="1" gridSize="10" guides="1" tooltips="1" connect="1" arrows="1" fold="1" page="1" pageScale="1" pageWidth="827" pageHeight="1169" math="0" shadow="0">
      <root>
        <mxCell id="0" />
        <mxCell id="1" parent="0" />
        <mxCell id="-QNC--wuqEmw_u6OLis--1" value="&#xa;  &#xa;    &#xa;      &#xa;        &#xa;        &#xa;&#xa;        &#xa;        &#xa;          &#xa;        &#xa;&#xa;        &#xa;        &#xa;          &#xa;        &#xa;&#xa;        &#xa;        &#xa;          &#xa;        &#xa;&#xa;        &#xa;        &#xa;          &#xa;        &#xa;&#xa;        &#xa;        &#xa;          &#xa;        &#xa;&#xa;        &#xa;        &#xa;          &#xa;        &#xa;&#xa;        &#xa;        &#xa;          &#xa;        &#xa;        &#xa;          &#xa;        &#xa;        &#xa;          &#xa;        &#xa;&#xa;        &#xa;        &#xa;          &#xa;        &#xa;        &#xa;          &#xa;        &#xa;        &#xa;          &#xa;        &#xa;&#xa;      &#xa;    &#xa;  &#xa;" style="text;whiteSpace=wrap;html=1;" vertex="1" parent="1">
          <mxGeometry width="30" height="920" as="geometry" />
        </mxCell>
        <mxCell id="-QNC--wuqEmw_u6OLis--2" value="&lt;b&gt;Person&lt;/b&gt;" style="swimlane;fontStyle=1;align=center;verticalAlign=top;childLayout=stackLayout;horizontal=1;startSize=30;horizontalStack=0;resizeParent=1;resizeParentMax=0;resizeLast=0;collapsible=1;marginBottom=0;whiteSpace=wrap;html=1;" vertex="1" parent="1">
          <mxGeometry x="452.5" y="100" width="180" height="104" as="geometry">
            <mxRectangle x="450" y="100" width="80" height="30" as="alternateBounds" />
          </mxGeometry>
        </mxCell>
        <mxCell id="-QNC--wuqEmw_u6OLis--3" value="- name: String&lt;br&gt;- email: String" style="text;strokeColor=none;fillColor=none;align=left;verticalAlign=top;spacingLeft=4;spacingRight=4;overflow=hidden;rotatable=0;points=[[0,0.5],[1,0.5]];portConstraint=eastwest;whiteSpace=wrap;html=1;" vertex="1" parent="-QNC--wuqEmw_u6OLis--2">
          <mxGeometry y="30" width="180" height="40" as="geometry" />
        </mxCell>
        <mxCell id="-QNC--wuqEmw_u6OLis--4" value="" style="line;strokeWidth=1;fillColor=none;align=left;verticalAlign=middle;spacingTop=-1;spacingLeft=3;spacingRight=3;rotatable=0;labelPosition=right;points=[];portConstraint=eastwest;strokeColor=inherit;" vertex="1" parent="-QNC--wuqEmw_u6OLis--2">
          <mxGeometry y="70" width="180" height="8" as="geometry" />
        </mxCell>
        <mxCell id="-QNC--wuqEmw_u6OLis--5" value="+ getContactInfo(): String" style="text;strokeColor=none;fillColor=none;align=left;verticalAlign=top;spacingLeft=4;spacingRight=4;overflow=hidden;rotatable=0;points=[[0,0.5],[1,0.5]];portConstraint=eastwest;whiteSpace=wrap;html=1;" vertex="1" parent="-QNC--wuqEmw_u6OLis--2">
          <mxGeometry y="78" width="180" height="26" as="geometry" />
        </mxCell>
        <mxCell id="-QNC--wuqEmw_u6OLis--6" value="&lt;b&gt;Client&lt;/b&gt;" style="swimlane;fontStyle=1;align=center;verticalAlign=top;childLayout=stackLayout;horizontal=1;startSize=30;horizontalStack=0;resizeParent=1;resizeParentMax=0;resizeLast=0;collapsible=1;marginBottom=0;whiteSpace=wrap;html=1;" vertex="1" parent="1">
          <mxGeometry x="460" y="280" width="160" height="120" as="geometry">
            <mxRectangle x="460" y="280" width="70" height="30" as="alternateBounds" />
          </mxGeometry>
        </mxCell>
        <mxCell id="-QNC--wuqEmw_u6OLis--7" value="- clientId: int&lt;br&gt;- accounts: List&lt;div&gt;&lt;br/&gt;&lt;/div&gt;" style="text;strokeColor=none;fillColor=none;align=left;verticalAlign=top;spacingLeft=4;spacingRight=4;overflow=hidden;rotatable=0;points=[[0,0.5],[1,0.5]];portConstraint=eastwest;whiteSpace=wrap;html=1;" vertex="1" parent="-QNC--wuqEmw_u6OLis--6">
          <mxGeometry y="30" width="160" height="40" as="geometry" />
        </mxCell>
        <mxCell id="-QNC--wuqEmw_u6OLis--8" value="" style="line;strokeWidth=1;fillColor=none;align=left;verticalAlign=middle;spacingTop=-1;spacingLeft=3;spacingRight=3;rotatable=0;labelPosition=right;points=[];portConstraint=eastwest;strokeColor=inherit;" vertex="1" parent="-QNC--wuqEmw_u6OLis--6">
          <mxGeometry y="70" width="160" height="8" as="geometry" />
        </mxCell>
        <mxCell id="-QNC--wuqEmw_u6OLis--9" value="+ openAccount(): void&lt;br&gt;+ getAccounts(): List" style="text;strokeColor=none;fillColor=none;align=left;verticalAlign=top;spacingLeft=4;spacingRight=4;overflow=hidden;rotatable=0;points=[[0,0.5],[1,0.5]];portConstraint=eastwest;whiteSpace=wrap;html=1;" vertex="1" parent="-QNC--wuqEmw_u6OLis--6">
          <mxGeometry y="78" width="160" height="42" as="geometry" />
        </mxCell>
        <mxCell id="-QNC--wuqEmw_u6OLis--10" value="&lt;b&gt;BankAccount&lt;/b&gt;" style="swimlane;fontStyle=1;align=center;verticalAlign=top;childLayout=stackLayout;horizontal=1;startSize=30;horizontalStack=0;resizeParent=1;resizeParentMax=0;resizeLast=0;collapsible=1;marginBottom=0;whiteSpace=wrap;html=1;" vertex="1" parent="1">
          <mxGeometry x="445" y="480" width="195" height="120" as="geometry">
            <mxRectangle x="445" y="480" width="120" height="30" as="alternateBounds" />
          </mxGeometry>
        </mxCell>
        <mxCell id="-QNC--wuqEmw_u6OLis--11" value="- accountNumber: String&lt;br&gt;- balance: double" style="text;strokeColor=none;fillColor=none;align=left;verticalAlign=top;spacingLeft=4;spacingRight=4;overflow=hidden;rotatable=0;points=[[0,0.5],[1,0.5]];portConstraint=eastwest;whiteSpace=wrap;html=1;" vertex="1" parent="-QNC--wuqEmw_u6OLis--10">
          <mxGeometry y="30" width="195" height="40" as="geometry" />
        </mxCell>
        <mxCell id="-QNC--wuqEmw_u6OLis--12" value="" style="line;strokeWidth=1;fillColor=none;align=left;verticalAlign=middle;spacingTop=-1;spacingLeft=3;spacingRight=3;rotatable=0;labelPosition=right;points=[];portConstraint=eastwest;strokeColor=inherit;" vertex="1" parent="-QNC--wuqEmw_u6OLis--10">
          <mxGeometry y="70" width="195" height="8" as="geometry" />
        </mxCell>
        <mxCell id="-QNC--wuqEmw_u6OLis--13" value="+ deposit(amount: double): void&lt;br&gt;+ withdraw(amount: double): void" style="text;strokeColor=none;fillColor=none;align=left;verticalAlign=top;spacingLeft=4;spacingRight=4;overflow=hidden;rotatable=0;points=[[0,0.5],[1,0.5]];portConstraint=eastwest;whiteSpace=wrap;html=1;" vertex="1" parent="-QNC--wuqEmw_u6OLis--10">
          <mxGeometry y="78" width="195" height="42" as="geometry" />
        </mxCell>
        <mxCell id="-QNC--wuqEmw_u6OLis--14" value="&lt;b&gt;Transaction&lt;/b&gt;" style="swimlane;fontStyle=1;align=center;verticalAlign=top;childLayout=stackLayout;horizontal=1;startSize=30;horizontalStack=0;resizeParent=1;resizeParentMax=0;resizeLast=0;collapsible=1;marginBottom=0;whiteSpace=wrap;html=1;" vertex="1" parent="1">
          <mxGeometry x="760" y="480" width="190" height="120" as="geometry">
            <mxRectangle x="720" y="480" width="110" height="30" as="alternateBounds" />
          </mxGeometry>
        </mxCell>
        <mxCell id="-QNC--wuqEmw_u6OLis--15" value="- transactionId: int&lt;br&gt;- amount: double&lt;br&gt;- type: String" style="text;strokeColor=none;fillColor=none;align=left;verticalAlign=top;spacingLeft=4;spacingRight=4;overflow=hidden;rotatable=0;points=[[0,0.5],[1,0.5]];portConstraint=eastwest;whiteSpace=wrap;html=1;" vertex="1" parent="-QNC--wuqEmw_u6OLis--14">
          <mxGeometry y="30" width="190" height="60" as="geometry" />
        </mxCell>
        <mxCell id="-QNC--wuqEmw_u6OLis--16" value="" style="line;strokeWidth=1;fillColor=none;align=left;verticalAlign=middle;spacingTop=-1;spacingLeft=3;spacingRight=3;rotatable=0;labelPosition=right;points=[];portConstraint=eastwest;strokeColor=inherit;" vertex="1" parent="-QNC--wuqEmw_u6OLis--14">
          <mxGeometry y="90" width="190" height="8" as="geometry" />
        </mxCell>
        <mxCell id="-QNC--wuqEmw_u6OLis--17" value="+ execute(): void" style="text;strokeColor=none;fillColor=none;align=left;verticalAlign=top;spacingLeft=4;spacingRight=4;overflow=hidden;rotatable=0;points=[[0,0.5],[1,0.5]];portConstraint=eastwest;whiteSpace=wrap;html=1;" vertex="1" parent="-QNC--wuqEmw_u6OLis--14">
          <mxGeometry y="98" width="190" height="22" as="geometry" />
        </mxCell>
        <mxCell id="-QNC--wuqEmw_u6OLis--18" value="" style="endArrow=diamondThin;endFill=0;endSize=24;html=1;rounded=0;" edge="1" parent="1" source="-QNC--wuqEmw_u6OLis--10" target="-QNC--wuqEmw_u6OLis--6">
          <mxGeometry width="160" relative="1" as="geometry">
            <mxPoint x="480" y="440" as="sourcePoint" />
            <mxPoint x="540" y="430" as="targetPoint" />
          </mxGeometry>
        </mxCell>
        <mxCell id="-QNC--wuqEmw_u6OLis--19" value="1..1" style="edgeLabel;html=1;align=center;verticalAlign=middle;resizable=0;points=[];dashed=1;" vertex="1" connectable="0" parent="-QNC--wuqEmw_u6OLis--18">
          <mxGeometry x="0.6789" y="-4" relative="1" as="geometry">
            <mxPoint x="15" as="offset" />
          </mxGeometry>
        </mxCell>
        <mxCell id="-QNC--wuqEmw_u6OLis--20" value="0..*" style="edgeLabel;html=1;align=center;verticalAlign=middle;resizable=0;points=[];dashed=1;" vertex="1" connectable="0" parent="-QNC--wuqEmw_u6OLis--18">
          <mxGeometry x="-0.641" y="1" relative="1" as="geometry">
            <mxPoint x="19" as="offset" />
          </mxGeometry>
        </mxCell>
        <mxCell id="-QNC--wuqEmw_u6OLis--21" value="" style="endArrow=diamondThin;endFill=1;endSize=24;html=1;rounded=0;" edge="1" parent="1" source="-QNC--wuqEmw_u6OLis--15" target="-QNC--wuqEmw_u6OLis--10">
          <mxGeometry width="160" relative="1" as="geometry">
            <mxPoint x="710" y="530" as="sourcePoint" />
            <mxPoint x="660" y="550" as="targetPoint" />
          </mxGeometry>
        </mxCell>
        <mxCell id="-QNC--wuqEmw_u6OLis--22" value="1..1" style="edgeLabel;html=1;align=center;verticalAlign=middle;resizable=0;points=[];dashed=1;" vertex="1" connectable="0" parent="-QNC--wuqEmw_u6OLis--21">
          <mxGeometry x="0.8034" y="-2" relative="1" as="geometry">
            <mxPoint y="-18" as="offset" />
          </mxGeometry>
        </mxCell>
        <mxCell id="-QNC--wuqEmw_u6OLis--23" value="0..*" style="edgeLabel;html=1;align=center;verticalAlign=middle;resizable=0;points=[];dashed=1;" vertex="1" connectable="0" parent="-QNC--wuqEmw_u6OLis--21">
          <mxGeometry x="-0.7072" relative="1" as="geometry">
            <mxPoint y="-20" as="offset" />
          </mxGeometry>
        </mxCell>
        <mxCell id="-QNC--wuqEmw_u6OLis--24" value="Extends" style="endArrow=block;endSize=16;endFill=0;html=1;rounded=0;" edge="1" parent="1" source="-QNC--wuqEmw_u6OLis--6" target="-QNC--wuqEmw_u6OLis--5">
          <mxGeometry width="160" relative="1" as="geometry">
            <mxPoint x="520" y="270" as="sourcePoint" />
            <mxPoint x="650" y="230" as="targetPoint" />
          </mxGeometry>
        </mxCell>
      </root>
    </mxGraphModel>
  </diagram>
  <diagram name="Aircraft UML" id="V6biTZsmlo5RxvZi246d">
    <mxGraphModel dx="1281" dy="563" grid="1" gridSize="10" guides="1" tooltips="1" connect="1" arrows="1" fold="1" page="1" pageScale="1" pageWidth="827" pageHeight="1169" math="0" shadow="0">
      <root>
        <mxCell id="0" />
        <mxCell id="1" parent="0" />
        <mxCell id="lUIX90zQeqO0LuC4yEv1-1" value="ControlSystem" style="swimlane;fontStyle=1;align=center;verticalAlign=top;childLayout=stackLayout;horizontal=1;startSize=26;horizontalStack=0;resizeParent=1;resizeParentMax=0;resizeLast=0;collapsible=1;marginBottom=0;whiteSpace=wrap;html=1;" parent="1" vertex="1">
          <mxGeometry x="37" y="220" width="286" height="170" as="geometry">
            <mxRectangle x="290" y="310" width="120" height="30" as="alternateBounds" />
          </mxGeometry>
        </mxCell>
        <mxCell id="lUIX90zQeqO0LuC4yEv1-2" value="- systemId: int&amp;nbsp;&amp;nbsp;&lt;br&gt;- aircrafts: List&amp;nbsp;&lt;br&gt;- dispatchers: List" style="text;strokeColor=none;fillColor=none;align=left;verticalAlign=top;spacingLeft=4;spacingRight=4;overflow=hidden;rotatable=0;points=[[0,0.5],[1,0.5]];portConstraint=eastwest;whiteSpace=wrap;html=1;" parent="lUIX90zQeqO0LuC4yEv1-1" vertex="1">
          <mxGeometry y="26" width="286" height="54" as="geometry" />
        </mxCell>
        <mxCell id="lUIX90zQeqO0LuC4yEv1-3" value="" style="line;strokeWidth=1;fillColor=none;align=left;verticalAlign=middle;spacingTop=-1;spacingLeft=3;spacingRight=3;rotatable=0;labelPosition=right;points=[];portConstraint=eastwest;strokeColor=inherit;" parent="lUIX90zQeqO0LuC4yEv1-1" vertex="1">
          <mxGeometry y="80" width="286" height="8" as="geometry" />
        </mxCell>
        <mxCell id="lUIX90zQeqO0LuC4yEv1-4" value="+ runFullDiagnostics(): void&amp;nbsp;&amp;nbsp;&lt;br&gt;+ assignDispatcher(d: Dispatcher, a: Aircraft): void&amp;nbsp;&amp;nbsp;&lt;br&gt;+ getSystemReport(): String" style="text;strokeColor=none;fillColor=none;align=left;verticalAlign=top;spacingLeft=4;spacingRight=4;overflow=hidden;rotatable=0;points=[[0,0.5],[1,0.5]];portConstraint=eastwest;whiteSpace=wrap;html=1;" parent="lUIX90zQeqO0LuC4yEv1-1" vertex="1">
          <mxGeometry y="88" width="286" height="82" as="geometry" />
        </mxCell>
        <mxCell id="tuj8BLyXl2Au5iAglvmN-1" value="Dispatcher" style="swimlane;fontStyle=1;align=center;verticalAlign=top;childLayout=stackLayout;horizontal=1;startSize=26;horizontalStack=0;resizeParent=1;resizeParentMax=0;resizeLast=0;collapsible=1;marginBottom=0;whiteSpace=wrap;html=1;" parent="1" vertex="1">
          <mxGeometry x="490" y="570" width="220" height="100" as="geometry" />
        </mxCell>
        <mxCell id="tuj8BLyXl2Au5iAglvmN-2" value="- name: String&amp;nbsp;&amp;nbsp;" style="text;strokeColor=none;fillColor=none;align=left;verticalAlign=top;spacingLeft=4;spacingRight=4;overflow=hidden;rotatable=0;points=[[0,0.5],[1,0.5]];portConstraint=eastwest;whiteSpace=wrap;html=1;" parent="tuj8BLyXl2Au5iAglvmN-1" vertex="1">
          <mxGeometry y="26" width="220" height="34" as="geometry" />
        </mxCell>
        <mxCell id="tuj8BLyXl2Au5iAglvmN-3" value="" style="line;strokeWidth=1;fillColor=none;align=left;verticalAlign=middle;spacingTop=-1;spacingLeft=3;spacingRight=3;rotatable=0;labelPosition=right;points=[];portConstraint=eastwest;strokeColor=inherit;" parent="tuj8BLyXl2Au5iAglvmN-1" vertex="1">
          <mxGeometry y="60" width="220" height="8" as="geometry" />
        </mxCell>
        <mxCell id="tuj8BLyXl2Au5iAglvmN-4" value="+ inspectAircraft(a: Aircraft): Report&amp;nbsp;&amp;nbsp;&lt;div&gt;&lt;br/&gt;&lt;/div&gt;" style="text;strokeColor=none;fillColor=none;align=left;verticalAlign=top;spacingLeft=4;spacingRight=4;overflow=hidden;rotatable=0;points=[[0,0.5],[1,0.5]];portConstraint=eastwest;whiteSpace=wrap;html=1;" parent="tuj8BLyXl2Au5iAglvmN-1" vertex="1">
          <mxGeometry y="68" width="220" height="32" as="geometry" />
        </mxCell>
        <mxCell id="tuj8BLyXl2Au5iAglvmN-9" value="Aircraft" style="swimlane;fontStyle=1;align=center;verticalAlign=top;childLayout=stackLayout;horizontal=1;startSize=26;horizontalStack=0;resizeParent=1;resizeParentMax=0;resizeLast=0;collapsible=1;marginBottom=0;whiteSpace=wrap;html=1;" parent="1" vertex="1">
          <mxGeometry x="50" y="520" width="260" height="130" as="geometry" />
        </mxCell>
        <mxCell id="tuj8BLyXl2Au5iAglvmN-10" value="- tailNumber: String&amp;nbsp;&amp;nbsp;&lt;br&gt;- status: String&amp;nbsp;&amp;nbsp;&lt;br&gt;- engines: List" style="text;strokeColor=none;fillColor=none;align=left;verticalAlign=top;spacingLeft=4;spacingRight=4;overflow=hidden;rotatable=0;points=[[0,0.5],[1,0.5]];portConstraint=eastwest;whiteSpace=wrap;html=1;" parent="tuj8BLyXl2Au5iAglvmN-9" vertex="1">
          <mxGeometry y="26" width="260" height="54" as="geometry" />
        </mxCell>
        <mxCell id="tuj8BLyXl2Au5iAglvmN-11" value="" style="line;strokeWidth=1;fillColor=none;align=left;verticalAlign=middle;spacingTop=-1;spacingLeft=3;spacingRight=3;rotatable=0;labelPosition=right;points=[];portConstraint=eastwest;strokeColor=inherit;" parent="tuj8BLyXl2Au5iAglvmN-9" vertex="1">
          <mxGeometry y="80" width="260" height="8" as="geometry" />
        </mxCell>
        <mxCell id="tuj8BLyXl2Au5iAglvmN-12" value="+ performDiagnostics(): boolean&amp;nbsp;&amp;nbsp;&lt;br&gt;+ updateStatus(newStatus: String): void" style="text;strokeColor=none;fillColor=none;align=left;verticalAlign=top;spacingLeft=4;spacingRight=4;overflow=hidden;rotatable=0;points=[[0,0.5],[1,0.5]];portConstraint=eastwest;whiteSpace=wrap;html=1;" parent="tuj8BLyXl2Au5iAglvmN-9" vertex="1">
          <mxGeometry y="88" width="260" height="42" as="geometry" />
        </mxCell>
        <mxCell id="tuj8BLyXl2Au5iAglvmN-13" value="Engine" style="swimlane;fontStyle=1;align=center;verticalAlign=top;childLayout=stackLayout;horizontal=1;startSize=26;horizontalStack=0;resizeParent=1;resizeParentMax=0;resizeLast=0;collapsible=1;marginBottom=0;whiteSpace=wrap;html=1;" parent="1" vertex="1">
          <mxGeometry x="75" y="720" width="210" height="90" as="geometry" />
        </mxCell>
        <mxCell id="tuj8BLyXl2Au5iAglvmN-14" value="- serialNumber: String&amp;nbsp;&amp;nbsp;&lt;br&gt;&amp;nbsp;&amp;nbsp;" style="text;strokeColor=none;fillColor=none;align=left;verticalAlign=top;spacingLeft=4;spacingRight=4;overflow=hidden;rotatable=0;points=[[0,0.5],[1,0.5]];portConstraint=eastwest;whiteSpace=wrap;html=1;" parent="tuj8BLyXl2Au5iAglvmN-13" vertex="1">
          <mxGeometry y="26" width="210" height="24" as="geometry" />
        </mxCell>
        <mxCell id="tuj8BLyXl2Au5iAglvmN-15" value="" style="line;strokeWidth=1;fillColor=none;align=left;verticalAlign=middle;spacingTop=-1;spacingLeft=3;spacingRight=3;rotatable=0;labelPosition=right;points=[];portConstraint=eastwest;strokeColor=inherit;" parent="tuj8BLyXl2Au5iAglvmN-13" vertex="1">
          <mxGeometry y="50" width="210" height="8" as="geometry" />
        </mxCell>
        <mxCell id="tuj8BLyXl2Au5iAglvmN-16" value="+ runTest(): boolean&amp;nbsp;&amp;nbsp;&lt;div&gt;&lt;br/&gt;&lt;/div&gt;" style="text;strokeColor=none;fillColor=none;align=left;verticalAlign=top;spacingLeft=4;spacingRight=4;overflow=hidden;rotatable=0;points=[[0,0.5],[1,0.5]];portConstraint=eastwest;whiteSpace=wrap;html=1;" parent="tuj8BLyXl2Au5iAglvmN-13" vertex="1">
          <mxGeometry y="58" width="210" height="32" as="geometry" />
        </mxCell>
        <mxCell id="tuj8BLyXl2Au5iAglvmN-17" value="Report" style="swimlane;fontStyle=1;align=center;verticalAlign=top;childLayout=stackLayout;horizontal=1;startSize=26;horizontalStack=0;resizeParent=1;resizeParentMax=0;resizeLast=0;collapsible=1;marginBottom=0;whiteSpace=wrap;html=1;" parent="1" vertex="1">
          <mxGeometry x="480" y="330" width="240" height="118" as="geometry">
            <mxRectangle x="480" y="330" width="80" height="30" as="alternateBounds" />
          </mxGeometry>
        </mxCell>
        <mxCell id="tuj8BLyXl2Au5iAglvmN-18" value="- reportId: int&amp;nbsp;&amp;nbsp;&lt;br&gt;- overallStatus: String&amp;nbsp;&amp;nbsp;" style="text;strokeColor=none;fillColor=none;align=left;verticalAlign=top;spacingLeft=4;spacingRight=4;overflow=hidden;rotatable=0;points=[[0,0.5],[1,0.5]];portConstraint=eastwest;whiteSpace=wrap;html=1;" parent="tuj8BLyXl2Au5iAglvmN-17" vertex="1">
          <mxGeometry y="26" width="240" height="44" as="geometry" />
        </mxCell>
        <mxCell id="tuj8BLyXl2Au5iAglvmN-19" value="" style="line;strokeWidth=1;fillColor=none;align=left;verticalAlign=middle;spacingTop=-1;spacingLeft=3;spacingRight=3;rotatable=0;labelPosition=right;points=[];portConstraint=eastwest;strokeColor=inherit;" parent="tuj8BLyXl2Au5iAglvmN-17" vertex="1">
          <mxGeometry y="70" width="240" height="8" as="geometry" />
        </mxCell>
        <mxCell id="tuj8BLyXl2Au5iAglvmN-20" value="+ generate(): void&amp;nbsp;&amp;nbsp;&lt;br&gt;+ sendToSystem(cs: ControlSystem): void" style="text;strokeColor=none;fillColor=none;align=left;verticalAlign=top;spacingLeft=4;spacingRight=4;overflow=hidden;rotatable=0;points=[[0,0.5],[1,0.5]];portConstraint=eastwest;whiteSpace=wrap;html=1;" parent="tuj8BLyXl2Au5iAglvmN-17" vertex="1">
          <mxGeometry y="78" width="240" height="40" as="geometry" />
        </mxCell>
        <mxCell id="tuj8BLyXl2Au5iAglvmN-21" value="" style="endArrow=diamondThin;endFill=0;endSize=24;html=1;rounded=0;" parent="1" source="tuj8BLyXl2Au5iAglvmN-9" target="lUIX90zQeqO0LuC4yEv1-1" edge="1">
          <mxGeometry width="160" relative="1" as="geometry">
            <mxPoint x="200" y="470" as="sourcePoint" />
            <mxPoint x="290" y="394.33" as="targetPoint" />
            <Array as="points" />
          </mxGeometry>
        </mxCell>
        <mxCell id="tuj8BLyXl2Au5iAglvmN-28" value="1..1" style="edgeLabel;html=1;align=center;verticalAlign=middle;resizable=0;points=[];" parent="tuj8BLyXl2Au5iAglvmN-21" vertex="1" connectable="0">
          <mxGeometry x="0.5548" y="1" relative="1" as="geometry">
            <mxPoint x="-19" y="-13" as="offset" />
          </mxGeometry>
        </mxCell>
        <mxCell id="tuj8BLyXl2Au5iAglvmN-29" value="0..*" style="edgeLabel;html=1;align=center;verticalAlign=middle;resizable=0;points=[];" parent="tuj8BLyXl2Au5iAglvmN-21" vertex="1" connectable="0">
          <mxGeometry x="-0.8438" y="-1" relative="1" as="geometry">
            <mxPoint x="-21" as="offset" />
          </mxGeometry>
        </mxCell>
        <mxCell id="tuj8BLyXl2Au5iAglvmN-22" value="" style="endArrow=diamondThin;endFill=0;endSize=24;html=1;rounded=0;" parent="1" source="tuj8BLyXl2Au5iAglvmN-1" target="lUIX90zQeqO0LuC4yEv1-1" edge="1">
          <mxGeometry width="160" relative="1" as="geometry">
            <mxPoint x="762" y="720" as="sourcePoint" />
            <mxPoint x="638" y="395" as="targetPoint" />
            <Array as="points">
              <mxPoint x="762" y="620" />
              <mxPoint x="762" y="305" />
            </Array>
          </mxGeometry>
        </mxCell>
        <mxCell id="tuj8BLyXl2Au5iAglvmN-30" value="1..1" style="edgeLabel;html=1;align=center;verticalAlign=middle;resizable=0;points=[];" parent="tuj8BLyXl2Au5iAglvmN-22" vertex="1" connectable="0">
          <mxGeometry x="0.8939" y="-1" relative="1" as="geometry">
            <mxPoint y="-14" as="offset" />
          </mxGeometry>
        </mxCell>
        <mxCell id="tuj8BLyXl2Au5iAglvmN-31" value="0..*" style="edgeLabel;html=1;align=center;verticalAlign=middle;resizable=0;points=[];" parent="tuj8BLyXl2Au5iAglvmN-22" vertex="1" connectable="0">
          <mxGeometry x="-0.9362" y="-1" relative="1" as="geometry">
            <mxPoint x="-6" y="9" as="offset" />
          </mxGeometry>
        </mxCell>
        <mxCell id="tuj8BLyXl2Au5iAglvmN-23" value="" style="endArrow=open;endFill=1;endSize=12;html=1;rounded=0;" parent="1" source="tuj8BLyXl2Au5iAglvmN-17" target="lUIX90zQeqO0LuC4yEv1-1" edge="1">
          <mxGeometry width="160" relative="1" as="geometry">
            <mxPoint x="477" y="365.1428571428571" as="sourcePoint" />
            <mxPoint x="320" y="330.00476190476184" as="targetPoint" />
            <Array as="points" />
          </mxGeometry>
        </mxCell>
        <mxCell id="tuj8BLyXl2Au5iAglvmN-36" value="1..1" style="edgeLabel;html=1;align=center;verticalAlign=middle;resizable=0;points=[];" parent="tuj8BLyXl2Au5iAglvmN-23" vertex="1" connectable="0">
          <mxGeometry x="-0.8302" y="-3" relative="1" as="geometry">
            <mxPoint x="-7" y="24" as="offset" />
          </mxGeometry>
        </mxCell>
        <mxCell id="tuj8BLyXl2Au5iAglvmN-37" value="1..1" style="edgeLabel;html=1;align=center;verticalAlign=middle;resizable=0;points=[];" parent="tuj8BLyXl2Au5iAglvmN-23" vertex="1" connectable="0">
          <mxGeometry x="0.1545" relative="1" as="geometry">
            <mxPoint x="-40" y="8" as="offset" />
          </mxGeometry>
        </mxCell>
        <mxCell id="tuj8BLyXl2Au5iAglvmN-24" value="" style="endArrow=open;endFill=1;endSize=12;html=1;rounded=0;" parent="1" source="tuj8BLyXl2Au5iAglvmN-1" edge="1">
          <mxGeometry width="160" relative="1" as="geometry">
            <mxPoint x="580" y="760" as="sourcePoint" />
            <mxPoint x="310" y="620" as="targetPoint" />
            <Array as="points">
              <mxPoint x="430" y="620" />
            </Array>
          </mxGeometry>
        </mxCell>
        <mxCell id="fONexPZ5gYOxaCX_mCuk-2" value="1..1" style="edgeLabel;html=1;align=center;verticalAlign=middle;resizable=0;points=[];" parent="tuj8BLyXl2Au5iAglvmN-24" vertex="1" connectable="0">
          <mxGeometry x="-0.7802" y="2" relative="1" as="geometry">
            <mxPoint y="-14" as="offset" />
          </mxGeometry>
        </mxCell>
        <mxCell id="fONexPZ5gYOxaCX_mCuk-3" value="0..*" style="edgeLabel;html=1;align=center;verticalAlign=middle;resizable=0;points=[];" parent="tuj8BLyXl2Au5iAglvmN-24" vertex="1" connectable="0">
          <mxGeometry x="0.7118" y="-1" relative="1" as="geometry">
            <mxPoint y="-9" as="offset" />
          </mxGeometry>
        </mxCell>
        <mxCell id="tuj8BLyXl2Au5iAglvmN-25" value="" style="endArrow=open;endFill=1;endSize=12;html=1;rounded=0;" parent="1" source="tuj8BLyXl2Au5iAglvmN-1" target="tuj8BLyXl2Au5iAglvmN-17" edge="1">
          <mxGeometry width="160" relative="1" as="geometry">
            <mxPoint x="620" y="710" as="sourcePoint" />
            <mxPoint x="620" y="660" as="targetPoint" />
          </mxGeometry>
        </mxCell>
        <mxCell id="tuj8BLyXl2Au5iAglvmN-34" value="1..1" style="edgeLabel;html=1;align=center;verticalAlign=middle;resizable=0;points=[];" parent="tuj8BLyXl2Au5iAglvmN-25" vertex="1" connectable="0">
          <mxGeometry x="-0.6589" y="1" relative="1" as="geometry">
            <mxPoint x="22" as="offset" />
          </mxGeometry>
        </mxCell>
        <mxCell id="tuj8BLyXl2Au5iAglvmN-35" value="0..*" style="edgeLabel;html=1;align=center;verticalAlign=middle;resizable=0;points=[];" parent="tuj8BLyXl2Au5iAglvmN-25" vertex="1" connectable="0">
          <mxGeometry x="0.6465" y="1" relative="1" as="geometry">
            <mxPoint x="25" as="offset" />
          </mxGeometry>
        </mxCell>
        <mxCell id="tuj8BLyXl2Au5iAglvmN-26" value="" style="endArrow=diamondThin;endFill=1;endSize=24;html=1;rounded=0;" parent="1" source="tuj8BLyXl2Au5iAglvmN-13" target="tuj8BLyXl2Au5iAglvmN-9" edge="1">
          <mxGeometry width="160" relative="1" as="geometry">
            <mxPoint x="130" y="690" as="sourcePoint" />
            <mxPoint x="290" y="690" as="targetPoint" />
          </mxGeometry>
        </mxCell>
        <mxCell id="tuj8BLyXl2Au5iAglvmN-32" value="1..1" style="edgeLabel;html=1;align=center;verticalAlign=middle;resizable=0;points=[];" parent="tuj8BLyXl2Au5iAglvmN-26" vertex="1" connectable="0">
          <mxGeometry x="0.5242" y="-2" relative="1" as="geometry">
            <mxPoint x="-22" as="offset" />
          </mxGeometry>
        </mxCell>
        <mxCell id="tuj8BLyXl2Au5iAglvmN-33" value="2..4" style="edgeLabel;html=1;align=center;verticalAlign=middle;resizable=0;points=[];" parent="tuj8BLyXl2Au5iAglvmN-26" vertex="1" connectable="0">
          <mxGeometry x="-0.6186" y="1" relative="1" as="geometry">
            <mxPoint x="-19" as="offset" />
          </mxGeometry>
        </mxCell>
        <mxCell id="tuj8BLyXl2Au5iAglvmN-27" value="" style="endArrow=open;endFill=1;endSize=12;html=1;rounded=0;" parent="1" source="tuj8BLyXl2Au5iAglvmN-17" target="tuj8BLyXl2Au5iAglvmN-9" edge="1">
          <mxGeometry width="160" relative="1" as="geometry">
            <mxPoint x="450" y="500" as="sourcePoint" />
            <mxPoint x="470" y="540" as="targetPoint" />
          </mxGeometry>
        </mxCell>
        <mxCell id="fONexPZ5gYOxaCX_mCuk-4" value="1..1" style="edgeLabel;html=1;align=center;verticalAlign=middle;resizable=0;points=[];" parent="tuj8BLyXl2Au5iAglvmN-27" vertex="1" connectable="0">
          <mxGeometry x="-0.807" y="2" relative="1" as="geometry">
            <mxPoint x="-135" y="39" as="offset" />
          </mxGeometry>
        </mxCell>
        <mxCell id="fONexPZ5gYOxaCX_mCuk-5" value="0..*" style="edgeLabel;html=1;align=center;verticalAlign=middle;resizable=0;points=[];" parent="tuj8BLyXl2Au5iAglvmN-27" vertex="1" connectable="0">
          <mxGeometry x="0.7003" y="-1" relative="1" as="geometry">
            <mxPoint x="125" y="-75" as="offset" />
          </mxGeometry>
        </mxCell>
      </root>
    </mxGraphModel>
  </diagram>
</mxfile>
